<svg xmlns="http://www.w3.org/2000/svg" width="43" height="28" viewBox="0 0 43 28"><g><g><path fill="#01c476" d="M40.992 17.955a.03.03 0 0 1-.03.03l-12.13-.014v-7.395c0-.845-.688-1.532-1.533-1.532H15.184l.013-6.746 25.795.03v15.627zM27.33 26.204a.03.03 0 0 1-.03.03l-25.796-.03.03-15.657 25.796.03zM40.964.795H15.197c-.845 0-1.532.688-1.532 1.533v6.716H1.532C.687 9.044 0 9.73 0 10.576v15.628c0 .845.687 1.533 1.532 1.533H27.3c.846 0 1.533-.688 1.533-1.533v-6.716h12.132c.845 0 1.532-.687 1.532-1.533V2.328c0-.845-.687-1.533-1.532-1.533z"/></g></g></svg>