<svg id="Layer_1" data-name="Layer 1" xmlns="http://www.w3.org/2000/svg" viewBox="0 0 502 306.07"><defs><style>.cls-1{fill:#01c476;}</style></defs><title>code</title><path class="cls-1" d="M160.09,2.92a10,10,0,0,0-14.1,0L2.91,146a10.61,10.61,0,0,0,0,14.6L146,303.68a10,10,0,0,0,14.1-14.1L23.81,153.3,160.09,17A10,10,0,0,0,160.09,2.92Z" transform="translate(0 -0.01)"/><path class="cls-1" d="M499.09,146,356,2.92A10,10,0,0,0,341.9,17L478.19,153.3,341.91,289.58A10,10,0,0,0,356,303.68L499.09,160.6A10.61,10.61,0,0,0,499.09,146Z" transform="translate(0 -0.01)"/><path class="cls-1" d="M335.14,45.75a12.85,12.85,0,0,0-17.54,3.84l-139.7,214a12.35,12.35,0,0,0,3.53,17.11l.24.15A12.85,12.85,0,0,0,199.21,277L338.91,63a12.35,12.35,0,0,0-3.53-17.11Z" transform="translate(0 -0.01)"/></svg>