<svg id="Layer_1" data-name="Layer 1" xmlns="http://www.w3.org/2000/svg" viewBox="0 0 502 463.62"><defs><style>.cls-1{fill:#01c476;}</style></defs><title>devices</title><path class="cls-1" d="M492,19.19H10a10,10,0,0,0-10,10V365.57a10,10,0,0,0,10,10H241v26.28H166.9a10,10,0,0,0,0,20H302.52v51a10,10,0,0,0,10,10H442.33a10,10,0,0,0,10-10V375.57H492a10,10,0,0,0,10-10V29.19A10,10,0,0,0,492,19.19ZM302.52,401.86H261V375.57h41.52Zm0-46.28H20V311.23H302.52ZM432.33,462.81H322.52v-24H432.33Zm0-161.58V418.79H322.52V255.92H432.33ZM482,355.58H452.33V311.23H482Zm0-64.34H452.33V245.92a10,10,0,0,0-10-10H312.52a10,10,0,0,0-10,10v45.31H20v-252H482Z" transform="translate(0 -19.19)"/><path class="cls-1" d="M43.86,71.93H314.78a10,10,0,1,0,0-20H43.86a10,10,0,0,0,0,20Z" transform="translate(0 -19.19)"/><path class="cls-1" d="M354.29,71.93H369a10,10,0,1,0,0-20H354.29a10,10,0,0,0,0,20Z" transform="translate(0 -19.19)"/><path class="cls-1" d="M347.51,403.8a10,10,0,0,0,10-10V329.45a10,10,0,0,0-20,0V393.8A10,10,0,0,0,347.51,403.8Z" transform="translate(0 -19.19)"/><path class="cls-1" d="M347.51,304.46a10,10,0,0,0,10-10V279.79a10,10,0,1,0-20,0v14.67A10,10,0,0,0,347.51,304.46Z" transform="translate(0 -19.19)"/></svg>