<svg xmlns="http://www.w3.org/2000/svg" width="72.997" height="84.167" viewBox="0 0 72.997 84.167">
  <defs>
    <style>
      .cls-1 {
        fill: #fff;
      }
    </style>
  </defs>
  <g id="Digital_marketing" transform="translate(-1503 -3011)">
    <path id="Path_74" data-name="Path 74" class="cls-1" d="M1594.111,3171.791a1.716,1.716,0,0,0-3.01,0l-11.235,20.3a1.724,1.724,0,0,0,.653,2.325,11.752,11.752,0,0,1,5.55,9.819,1.718,1.718,0,0,0,1.718,1.718h9.635a1.718,1.718,0,0,0,1.718-1.718,11.756,11.756,0,0,1,5.544-9.816,1.717,1.717,0,0,0,.66-2.328l-11.233-20.3Zm1.689,30.722h-6.391a15.125,15.125,0,0,0-5.788-10.117l7.266-13.129v7.053a1.718,1.718,0,1,0,3.435,0v-7.053l7.266,13.129a15.13,15.13,0,0,0-5.788,10.117Zm0,0" transform="translate(-53.106 -110.782)"/>
    <path id="Path_75" data-name="Path 75" class="cls-1" d="M1574.28,3011h-7.189a1.718,1.718,0,0,0-1.718,1.718v7.189a1.718,1.718,0,0,0,1.718,1.718h1.4a29.394,29.394,0,0,1-23.679,23.678v-1.4a1.718,1.718,0,0,0-1.718-1.718H1535.9a1.718,1.718,0,0,0-1.718,1.718v1.4a29.387,29.387,0,0,1-23.679-23.678h1.4a1.718,1.718,0,0,0,1.718-1.718v-7.189a1.718,1.718,0,0,0-1.718-1.718h-7.19a1.718,1.718,0,0,0-1.718,1.718v7.189a1.718,1.718,0,0,0,1.718,1.718h2.306a32.885,32.885,0,0,0,17.848,24.156h-11.83a2.917,2.917,0,1,0,0,3.436h21.143v1.877a1.717,1.717,0,0,0,1.718,1.718h7.189a1.717,1.717,0,0,0,1.718-1.718v-1.877h21.142a2.919,2.919,0,1,0,0-3.436h-11.829a32.881,32.881,0,0,0,17.848-24.156h2.307a1.718,1.718,0,0,0,1.718-1.718v-7.189a1.718,1.718,0,0,0-1.718-1.718Zm-67.844,3.436h3.755v3.754h-3.755Zm34.941,34.94h-3.755v-3.754h3.754v3.754Zm31.186-31.186h-3.754v-3.754h3.754Zm0,0"/>
  </g>
</svg>
