<?xml version="1.0" encoding="utf-8"?>
<!-- Generator: Adobe Illustrator 21.0.0, SVG Export Plug-In . SVG Version: 6.00 Build 0)  -->
<svg version="1.1" id="Layer_1" xmlns="http://www.w3.org/2000/svg" xmlns:xlink="http://www.w3.org/1999/xlink" x="0px" y="0px"
	 viewBox="0 0 48 48" style="enable-background:new 0 0 48 48;" xml:space="preserve">
<style type="text/css">
	.st0{fill:#FFFFFF;}
	.st1{fill-rule:evenodd;clip-rule:evenodd;fill:#FFFFFF;}
</style>
<path class="st0" d="M24.2,2C30.3,2,35.9,4.5,40,8.6c4.1,4.1,6.6,9.7,6.6,15.8c0,6.2-2.5,11.8-6.6,15.8c-4.1,4.1-9.7,6.6-15.8,6.6
	c-6.2,0-11.8-2.5-15.8-6.6c-4.1-4.1-6.6-9.7-6.6-15.8c0-6.2,2.5-11.8,6.6-15.8C12.4,4.5,18,2,24.2,2L24.2,2z M38.8,9.8
	C35,6.1,29.9,3.7,24.2,3.7c-5.7,0-10.9,2.3-14.6,6.1c-3.7,3.7-6.1,8.9-6.1,14.6c0,5.7,2.3,10.9,6.1,14.6c3.7,3.7,8.9,6,14.6,6
	c5.7,0,10.9-2.3,14.6-6c3.7-3.7,6-8.9,6-14.6C44.8,18.7,42.5,13.5,38.8,9.8L38.8,9.8z"/>
<path class="st1" d="M25.9,19.8V18c0-0.9,0.6-1.1,1-1.1c0.4,0,2.6,0,2.6,0V13h-3.5c-3.9,0-4.8,2.9-4.8,4.8v2.1h-2.3v2.8v1.8h2.3
	c0,5.2,0,11.4,0,11.4h4.6c0,0,0-6.3,0-11.4h3.4l0.1-1.8l0.3-2.8H25.9z"/>
</svg>
