<svg xmlns="http://www.w3.org/2000/svg" xmlns:xlink="http://www.w3.org/1999/xlink" width="76.982" height="76.99" viewBox="0 0 76.982 76.99">
  <defs>
    <style>
      .cls-1 {
        fill: none;
      }

      .cls-2 {
        fill: #fff;
      }

      .cls-3 {
        fill: url(#linear-gradient);
      }

      .cls-4 {
        fill: url(#linear-gradient-2);
      }

      .cls-5 {
        fill: url(#linear-gradient-3);
      }

      .cls-6 {
        fill: url(#linear-gradient-4);
      }

      .cls-7 {
        fill: url(#linear-gradient-5);
      }

      .cls-8 {
        fill: url(#linear-gradient-6);
      }

      .cls-9 {
        fill: url(#linear-gradient-7);
      }

      .cls-10 {
        fill: url(#linear-gradient-8);
      }
    </style>
    <linearGradient id="linear-gradient" x1="-583.573" y1="0.5" x2="1.003" y2="0.5" gradientUnits="objectBoundingBox">
      <stop offset="0" stop-color="#fff"/>
      <stop offset="0" stop-color="#eaf5ed"/>
      <stop offset="0" stop-color="#d0e9d6"/>
      <stop offset="0" stop-color="#badfc4"/>
      <stop offset="0" stop-color="#a9d8b5"/>
      <stop offset="0" stop-color="#9dd2ab"/>
      <stop offset="0" stop-color="#96cfa5"/>
      <stop offset="0" stop-color="#95cfa4"/>
      <stop offset="0.19" stop-color="#92cea6"/>
      <stop offset="0.307" stop-color="#8acdaf"/>
      <stop offset="0.405" stop-color="#7dcbbd"/>
      <stop offset="0.491" stop-color="#6ac9d1"/>
      <stop offset="0.527" stop-color="#60c8dd"/>
      <stop offset="0.739" stop-color="#3ebcde"/>
      <stop offset="1" stop-color="#4573b8"/>
    </linearGradient>
    <linearGradient id="linear-gradient-2" x1="-578.868" y1="0.5" x2="1" y2="0.5" xlink:href="#linear-gradient"/>
    <linearGradient id="linear-gradient-3" x1="0" y1="0.5" x2="12.501" y2="0.5" xlink:href="#linear-gradient"/>
    <linearGradient id="linear-gradient-4" x1="0.002" y1="0.5" x2="520.701" y2="0.5" xlink:href="#linear-gradient"/>
    <linearGradient id="linear-gradient-5" x1="-12.88" y1="0.5" x2="1.024" y2="0.5" xlink:href="#linear-gradient"/>
    <linearGradient id="linear-gradient-6" x1="-43.235" y1="0.5" x2="3.437" y2="0.5" xlink:href="#linear-gradient"/>
    <linearGradient id="linear-gradient-7" x1="0" y1="0.5" x2="41.956" y2="0.5" xlink:href="#linear-gradient"/>
    <linearGradient id="linear-gradient-8" x1="-12.882" y1="0.5" x2="1.024" y2="0.5" xlink:href="#linear-gradient"/>
  </defs>
  <g id="GPS_logo" transform="translate(-331.464 -1293.442)">
    <path id="Path_29" data-name="Path 29" class="cls-1" d="M522.861,1468.223h1.668l-.836-1.682Z" transform="translate(-130.887 -118.374)"/>
    <path id="Path_30" data-name="Path 30" class="cls-1" d="M386.457,1466.962c0-.383-.318-.579-.868-.579H384.5v1.162h1.086C386.139,1467.545,386.457,1467.349,386.457,1466.962Z" transform="translate(-36.271 -118.266)"/>
    <path id="Path_31" data-name="Path 31" class="cls-1" d="M404.341,1417.086h6.394v-1.756h.21v-.019h-6.6Z" transform="translate(-49.837 -83.34)"/>
    <path id="Path_32" data-name="Path 32" class="cls-1" d="M385.689,1470.638H384.5v1.2h1.186c.609,0,.941-.183.941-.6S386.3,1470.638,385.689,1470.638Z" transform="translate(-36.271 -121.175)"/>
    <path id="Path_33" data-name="Path 33" class="cls-1" d="M412.5,1468.223h1.668l-.837-1.682Z" transform="translate(-55.418 -118.374)"/>
    <path id="Path_34" data-name="Path 34" class="cls-1" d="M402,1307.628a37.417,37.417,0,0,0-60.786,12.6,37.388,37.388,0,0,0,7.915,40.266,37.372,37.372,0,0,0,61.17-11.651,37.407,37.407,0,0,0-8.3-41.22Z" transform="translate(-4.781 -2.405)"/>
    <path id="Path_35" data-name="Path 35" class="cls-1" d="M438.963,1324.783q.817-.313,1.634-.623l7.284-2.775c.058-.022.116-.041.175-.059l.122-.031.311.018a1.046,1.046,0,0,1,.725.522.932.932,0,0,1,.021.809q-.341.8-.688,1.6l-2.929,6.791a1.019,1.019,0,0,1-.956.642h-.034a1.008,1.008,0,0,1-.948-.7q-.561-1.59-1.119-3.18c-.013-.038-.02-.047-.066-.061q-1.159-.369-2.316-.742l-1.075-.345a1.053,1.053,0,0,1-.77-.706A.957.957,0,0,1,438.963,1324.783Z" transform="translate(-73.058 -19.046)"/>
    <path id="Path_36" data-name="Path 36" class="cls-1" d="M385.187,1468.719h-1.418V1465.8H385.1c.682,0,1.1.262,1.1.745a.675.675,0,0,1-.532.667c.45.079.7.329.7.733C386.36,1468.44,385.969,1468.719,385.187,1468.719Z" transform="translate(-35.769 -117.87)"/>
    <path id="Path_37" data-name="Path 37" class="cls-1" d="M413.053,1468.719l-.409-.82H410.8l-.4.82h-.25l1.464-2.915h.232l1.464,2.915Z" transform="translate(-53.805 -117.869)"/>
    <path id="Path_38" data-name="Path 38" class="cls-1" d="M441.8,1468.719h-.191l-2.168-2.532v2.532h-.232V1465.8h.2l2.164,2.532V1465.8h.232Z" transform="translate(-73.68 -117.869)"/>
    <path id="Path_39" data-name="Path 39" class="cls-1" d="M468.865,1468.5a1.48,1.48,0,0,0,.9-.267v-1h.223v1.091a1.732,1.732,0,0,1-1.137.375,1.489,1.489,0,1,1,0-2.957,1.637,1.637,0,0,1,1.145.4l-.145.141a1.413,1.413,0,0,0-1-.345,1.291,1.291,0,1,0,0,2.565Z" transform="translate(-92.818 -117.825)"/>
    <path id="Path_40" data-name="Path 40" class="cls-1" d="M394.443,1392.729h-2.328v-1.308h2.328c4.414,0,7.087-2.6,7.087-6.526,0-1.916-.759-6.339-7.725-6.339h-7.484v9.2h.034v1.308h-.034v.019h.384v1.766h-.349v7.592l-.034.022v.806h2.173v-10.933h5.553c2.983,0,3.863-1.573,3.863-3.442,0-2.072-1.294-3.255-3.621-3.255h-4.345v4.922h-1.449v-6.23h5.794c3.121,0,5.07,1.744,5.07,4.564,0,3.021-1.948,4.75-5.311,4.75h-4.1v10.933h-5.07v-1.294a16.153,16.153,0,0,1-7.311,1.65c-7.381,0-11.347-5.467-11.347-12.009v-.218c0-5.965,4.035-11.774,11.14-11.774a13.309,13.309,0,0,1,7.518,2.039v-1.726H393.8c6.5,0,9.174,3.613,9.174,7.647C402.978,1389.349,399.875,1392.729,394.443,1392.729Z" transform="translate(-23.764 -57.096)"/>
    <path id="Path_41" data-name="Path 41" class="cls-1" d="M498.578,1468.719h-2.064V1465.8h.232v2.724h1.832Z" transform="translate(-112.87 -117.869)"/>
    <path id="Path_42" data-name="Path 42" class="cls-1" d="M523.412,1468.719l-.409-.82h-1.846l-.4.82h-.25l1.464-2.915h.232l1.464,2.915Z" transform="translate(-129.274 -117.869)"/>
    <path id="Path_43" data-name="Path 43" class="cls-1" d="M492.714,1402.016a19.618,19.618,0,0,1-9-2.165l1.759-4.221a17.653,17.653,0,0,0,7.242,1.994c2.793,0,4.345-.748,4.345-2.492,0-3.006-2.224-3.816-4.414-4.891-2.155-1.043-4.277-2.181-4.277-5.233,0-2.009,1.518-3.909,5.345-3.909a14.2,14.2,0,0,1,5.173,1.028l.724-1.791a13.173,13.173,0,0,0-5.914-1.012c-4.122,0-7.5,1.916-7.5,5.7,0,3.4,2.086,5.342,4.759,6.448l-.5,1.23c-3.673-1.5-5.707-4.065-5.707-7.679,0-4.641,4.173-7.008,8.95-7.008a15.187,15.187,0,0,1,7.725,1.667l-1.724,4.236a13.805,13.805,0,0,0-5.984-1.511c-2.569,0-3.9.95-3.9,2.6,0,2.4,1.673,3.177,3.552,4.1,2.4,1.168,5.138,2.321,5.138,6.027,0,1.417-.741,3.8-5.793,3.8a16.873,16.873,0,0,1-6.449-1.5l-.741,1.776a17.378,17.378,0,0,0,7.191,1.5c4.035,0,7.967-1.4,7.967-5.576,0-3.52-1.845-5.856-5.984-7.4l.483-1.23c4.5,1.651,6.95,4.33,6.95,8.629C502.129,1399.68,498.18,1402.016,492.714,1402.016Z" transform="translate(-104.116 -57.835)"/>
    <path id="Path_44" data-name="Path 44" class="cls-1" d="M380.592,1384.156c-4.173,0-6.173,4.081-6.173,7.382v.218c0,3.474,1.638,7.617,6.225,7.617a10.141,10.141,0,0,0,3.777-.623v-2.009h1.448v2.851l-.741.311a11.791,11.791,0,0,1-4.484.779c-5.259,0-7.673-4.423-7.673-8.925v-.218c0-4.236,2.707-8.691,7.622-8.691a9.25,9.25,0,0,1,4.949,1.262l1-1.62a12.053,12.053,0,0,0-6.052-1.417c-6.329,0-9.691,5.311-9.691,10.466v.218c0,5.53,3.121,10.7,9.9,10.7a14.508,14.508,0,0,0,7.311-1.866v-5.61h-8.052v-4.392h8.052v-7.8l-1.966,3.206A8.666,8.666,0,0,0,380.592,1384.156Z" transform="translate(-26.899 -59.926)"/>
    <path id="Path_45" data-name="Path 45" class="cls-2" d="M405.523,1346.443a37.389,37.389,0,0,1-71.848-14.5,36.951,36.951,0,0,1,2.763-14.112,37.384,37.384,0,0,1,69.085-.392,37.957,37.957,0,0,1,2.923,14.5,38.491,38.491,0,0,0-73.976-14.928,38.513,38.513,0,0,0,8.54,42.426,38.521,38.521,0,0,0,62.591-12.962,38,38,0,0,0,2.845-14.536A37.961,37.961,0,0,1,405.523,1346.443Z" transform="translate(0)"/>
    <path id="Path_46" data-name="Path 46" class="cls-3" d="M429.812,1428.568l.034-.022v-7.592h-.034Z" transform="translate(-67.255 -87.2)"/>
    <rect id="Rectangle_7" data-name="Rectangle 7" class="cls-4" width="0.035" height="1.308" transform="translate(362.557 1330.663)"/>
    <path id="Path_47" data-name="Path 47" class="cls-2" d="M399.76,1415.564h8.052v-1.3h-.21v-.009h-6.394v-1.776h6.6v-1.308H399.76Z" transform="translate(-46.704 -80.51)"/>
    <path id="Path_48" data-name="Path 48" class="cls-2" d="M377.562,1399.627c-6.777,0-9.9-5.171-9.9-10.7v-.218c0-5.155,3.362-10.466,9.691-10.466a12.053,12.053,0,0,1,6.052,1.417l-1,1.62a9.25,9.25,0,0,0-4.949-1.262c-4.915,0-7.622,4.455-7.622,8.691v.218c0,4.5,2.414,8.925,7.673,8.925a11.789,11.789,0,0,0,4.484-.779l.741-.311v-2.85h-1.448v2.009a10.136,10.136,0,0,1-3.777.624c-4.587,0-6.225-4.143-6.225-7.617v-.218c0-3.3,2-7.383,6.173-7.383a8.667,8.667,0,0,1,5.449,1.838l1.965-3.206v-.985a13.309,13.309,0,0,0-7.518-2.039c-7.1,0-11.14,5.809-11.14,11.774v.218c0,6.542,3.966,12.009,11.347,12.009a16.153,16.153,0,0,0,7.311-1.65v-1.524A14.51,14.51,0,0,1,377.562,1399.627Z" transform="translate(-23.764 -57.096)"/>
    <rect id="Rectangle_8" data-name="Rectangle 8" class="cls-5" width="1.448" height="0.019" transform="translate(361.108 1331.971)"/>
    <path id="Path_49" data-name="Path 49" class="cls-6" d="M425.265,1430.656v-5.592h-.035v5.61Z" transform="translate(-64.122 -90.01)"/>
    <path id="Path_50" data-name="Path 50" class="cls-2" d="M425.23,1407.927h5.07v-10.933h4.1c3.363,0,5.311-1.729,5.311-4.75,0-2.819-1.948-4.564-5.07-4.564h-5.794v6.23H430.3v-4.922h4.345c2.328,0,3.621,1.184,3.621,3.255,0,1.869-.88,3.442-3.863,3.442h-5.553v10.934h-2.173v-.806a15.9,15.9,0,0,1-1.449.82Z" transform="translate(-64.122 -64.445)"/>
    <path id="Path_51" data-name="Path 51" class="cls-2" d="M434.162,1377.926H425.23v1.725q.217.137.432.281l-.432.7v7.8h1.449v-9.2h7.484c6.966,0,7.725,4.423,7.725,6.339,0,3.925-2.673,6.526-7.087,6.526h-2.328v1.308H434.8c5.432,0,8.536-3.38,8.536-7.834C443.336,1381.539,440.663,1377.926,434.162,1377.926Z" transform="translate(-64.122 -57.774)"/>
    <path id="Path_52" data-name="Path 52" class="cls-7" d="M425.23,1420.955v1.3h.035v5.592l-.035.019v1.524a15.815,15.815,0,0,0,1.449-.82v-7.613Z" transform="translate(-64.122 -87.2)"/>
    <path id="Path_53" data-name="Path 53" class="cls-2" d="M425.23,1420.955v1.3h.035v5.592l-.035.019v1.524a15.815,15.815,0,0,0,1.449-.82v-7.613Z" transform="translate(-64.122 -87.2)"/>
    <path id="Path_54" data-name="Path 54" class="cls-8" d="M425.662,1383.665q-.215-.145-.432-.281v.985Z" transform="translate(-64.122 -61.507)"/>
    <path id="Path_55" data-name="Path 55" class="cls-9" d="M425.662,1383.665q-.215-.145-.432-.281v.985Z" transform="translate(-64.122 -61.507)"/>
    <rect id="Rectangle_9" data-name="Rectangle 9" class="cls-10" width="1.448" height="1.308" transform="translate(361.108 1330.663)"/>
    <rect id="Rectangle_10" data-name="Rectangle 10" class="cls-2" width="1.448" height="1.308" transform="translate(361.108 1330.663)"/>
    <path id="Path_56" data-name="Path 56" class="cls-2" d="M495.18,1386.5l-.483,1.23c4.139,1.542,5.984,3.878,5.984,7.4,0,4.174-3.932,5.576-7.967,5.576a17.378,17.378,0,0,1-7.191-1.5l.741-1.776a16.873,16.873,0,0,0,6.449,1.5c5.052,0,5.793-2.384,5.793-3.8,0-3.707-2.741-4.86-5.138-6.027-1.88-.919-3.552-1.7-3.552-4.1,0-1.651,1.327-2.6,3.9-2.6a13.805,13.805,0,0,1,5.984,1.511l1.724-4.236a15.187,15.187,0,0,0-7.725-1.667c-4.776,0-8.95,2.367-8.95,7.008,0,3.614,2.035,6.183,5.707,7.679l.5-1.23c-2.673-1.106-4.759-3.053-4.759-6.448,0-3.784,3.379-5.7,7.5-5.7a13.173,13.173,0,0,1,5.914,1.012l-.724,1.791a14.2,14.2,0,0,0-5.173-1.028c-3.828,0-5.345,1.9-5.345,3.909,0,3.052,2.121,4.19,4.277,5.233,2.19,1.075,4.414,1.884,4.414,4.891,0,1.744-1.552,2.492-4.345,2.492a17.653,17.653,0,0,1-7.242-1.994l-1.759,4.221a19.618,19.618,0,0,0,9,2.165c5.466,0,9.415-2.336,9.415-6.884C502.129,1390.833,499.681,1388.154,495.18,1386.5Z" transform="translate(-104.116 -57.835)"/>
    <path id="Path_57" data-name="Path 57" class="cls-2" d="M439.322,1326.537a.741.741,0,0,0,.563.493l1.076.345q1.157.372,2.315.742a.385.385,0,0,1,.268.258q.556,1.591,1.118,3.18a.72.72,0,0,0,1.35.036l2.929-6.791q.345-.8.687-1.6a.621.621,0,0,0-.01-.539.716.716,0,0,0-.5-.353.365.365,0,0,1-.051-.016h-.181l-.051.016c-.053.017-.107.034-.159.054l-7.284,2.775q-.817.311-1.634.623A.639.639,0,0,0,439.322,1326.537Zm.513-.3a.37.37,0,0,1,.135-.1q.579-.225,1.16-.445l7.689-2.936a.3.3,0,0,1,.184-.038.415.415,0,0,1,.136.057l.128.065-.074.273-.178.413q-1.71,3.961-3.423,7.922a.385.385,0,0,1-.1.129l-.14.146-.115-.121c-.008-.009-.017-.016-.026-.024a.351.351,0,0,1-.112-.146q-.581-1.629-1.155-3.261a.7.7,0,0,0-.5-.463q-1.263-.392-2.524-.788l-.964-.293-.018-.024-.268-.218Z" transform="translate(-73.742 -19.73)"/>
    <path id="Path_58" data-name="Path 58" class="cls-2" d="M438.184,1349.988a1.406,1.406,0,0,0-.437,1.032,1.431,1.431,0,0,0,.421.949,3.642,3.642,0,0,0,1.434.912,11.061,11.061,0,0,0,3.394.628,16.91,16.91,0,0,0,2.827-.087,9.18,9.18,0,0,0,2.338-.54,3.655,3.655,0,0,0,1.435-.913,1.388,1.388,0,0,0,.4-1.236,1.6,1.6,0,0,0-.647-.972,4.152,4.152,0,0,0-1.778-.756.187.187,0,0,0-.051,0,.216.216,0,0,0-.2.188.213.213,0,0,0,.18.215l.182.05c.18.049.365.1.545.165a2.426,2.426,0,0,1,1.084.7.969.969,0,0,1,.051,1.268,2.067,2.067,0,0,1-.612.551,5.244,5.244,0,0,1-1.53.615,15.476,15.476,0,0,1-3.392.392h-.015l-.562-.034c-.425-.025-.864-.051-1.3-.093a8.148,8.148,0,0,1-2.171-.494,3.342,3.342,0,0,1-1.2-.722,1.052,1.052,0,0,1,.055-1.67,2.675,2.675,0,0,1,.9-.515c.175-.061.354-.11.534-.16l.2-.056a.207.207,0,0,0,.169-.242.216.216,0,0,0-.217-.158.33.33,0,0,0-.059.006c-.13.027-.26.057-.386.093A3.481,3.481,0,0,0,438.184,1349.988Z" transform="translate(-72.682 -37.995)"/>
    <path id="Path_59" data-name="Path 59" class="cls-2" d="M442.261,1328.058l.781.245q1.262.395,2.524.788a1.023,1.023,0,0,1,.7.66q.552,1.573,1.113,3.142,1.685-3.9,3.372-7.808l.14-.323-7.622,2.91Q442.765,1327.864,442.261,1328.058Z" transform="translate(-75.769 -21.418)"/>
    <path id="Path_60" data-name="Path 60" class="cls-2" d="M385.66,1467.216a.675.675,0,0,0,.532-.667c0-.483-.414-.745-1.1-.745h-1.327v2.915h1.418c.782,0,1.173-.279,1.173-.77C386.36,1467.545,386.11,1467.295,385.66,1467.216ZM384,1465.987h1.086c.55,0,.868.2.868.579s-.318.583-.868.583H384Zm1.186,2.549H384v-1.2h1.186c.609,0,.941.183.941.6S385.8,1468.536,385.187,1468.536Z" transform="translate(-35.769 -117.87)"/>
    <path id="Path_61" data-name="Path 61" class="cls-2" d="M411.607,1465.8l-1.464,2.915h.25l.4-.82h1.846l.409.82h.25l-1.464-2.915Zm-.718,1.916.832-1.682.836,1.682Z" transform="translate(-53.805 -117.87)"/>
    <path id="Path_62" data-name="Path 62" class="cls-2" d="M441.566,1468.336,439.4,1465.8h-.2v2.915h.232v-2.532l2.168,2.532h.191V1465.8h-.232Z" transform="translate(-73.68 -117.869)"/>
    <path id="Path_63" data-name="Path 63" class="cls-2" d="M468.865,1465.934a1.413,1.413,0,0,1,1,.345l.145-.141a1.637,1.637,0,0,0-1.145-.4,1.489,1.489,0,1,0,0,2.957,1.732,1.732,0,0,0,1.137-.375v-1.091h-.223v1a1.48,1.48,0,0,1-.9.267,1.291,1.291,0,1,1,0-2.565Z" transform="translate(-92.818 -117.825)"/>
    <path id="Path_64" data-name="Path 64" class="cls-2" d="M496.746,1465.8h-.232v2.915h2.064v-.192h-1.832Z" transform="translate(-112.87 -117.869)"/>
    <path id="Path_65" data-name="Path 65" class="cls-2" d="M521.966,1465.8l-1.463,2.915h.25l.4-.82H523l.409.82h.25L522.2,1465.8Zm-.718,1.916.832-1.682.836,1.682Z" transform="translate(-129.274 -117.87)"/>
  </g>
</svg>
