<?xml version="1.0" encoding="utf-8"?>
<!-- Generator: Adobe Illustrator 21.0.0, SVG Export Plug-In . SVG Version: 6.00 Build 0)  -->
<svg version="1.1" id="Capa_1" xmlns="http://www.w3.org/2000/svg" xmlns:xlink="http://www.w3.org/1999/xlink" x="0px" y="0px"
	 viewBox="0 0 512 512" style="enable-background:new 0 0 512 512;" xml:space="preserve">
<style type="text/css">
	.st0{fill:#FFFFFF;}
</style>
<g>
	<g>
		<path class="st0" d="M504.8,72.6L439.4,7.2c-9.5-9.5-25-9.5-34.6,0L281.6,130.4c-3.1,3.1-3.1,8.1,0,11.2c3.1,3.1,8.1,3.1,11.2,0
			L416,18.3c1.6-1.6,3.8-2.5,6.1-2.5s4.5,0.9,6.1,2.5l65.5,65.5c1.6,1.6,2.5,3.8,2.5,6.1c0,2.3-0.9,4.5-2.5,6.1l-16.1,16.1L435.5,70
			c-3.1-3.1-8.1-3.1-11.2,0c-3.1,3.1-3.1,8.1,0,11.2l42.1,42.1l-18.4,18.4l-18.5-18.5c-3.1-3.1-8.1-3.1-11.2,0
			c-3.1,3.1-3.1,8.1,0,11.2l18.5,18.5l-18.4,18.4L400,152.6c-3.1-3.1-8.1-3.1-11.2,0c-3.1,3.1-3.1,8.1,0,11.2l18.5,18.5L389,200.7
			l-42.1-42.1c-3.1-3.1-8.1-3.1-11.2,0c-3.1,3.1-3.1,8.1,0,11.2l42.1,42.1l-18.4,18.4L341,211.7c-3.1-3.1-8.1-3.1-11.2,0
			c-3.1,3.1-3.1,8.1,0,11.2l18.5,18.5l-15.5,15.5l-77.7-77.7l14.5-14.5c3.1-3.1,3.1-8.1,0-11.2c-3.1-3.1-8.1-3.1-11.2,0L243.9,168
			L98.2,22.3C88,12.1,74.5,6.5,60.2,6.5c-14.3,0-27.8,5.6-38,15.7C12.1,32.4,6.5,45.9,6.5,60.2c0,14.3,5.6,27.8,15.7,38L168,243.9
			L7.2,404.8c-9.5,9.5-9.5,25,0,34.6l65.5,65.5c4.6,4.6,10.8,7.2,17.3,7.2s12.7-2.5,17.3-7.2L268.1,344l11.5,11.5
			c3.1,3.1,8.1,3.1,11.2,0c3.1-3.1,3.1-8.1,0-11.2l-15.8-15.8c-0.3-0.5-0.7-0.9-1.1-1.4s-0.9-0.8-1.4-1.1L101.2,154.8l21.2-21.2
			l13.1,13.1c1.5,1.5,3.6,2.3,5.6,2.3s4-0.8,5.6-2.3c3.1-3.1,3.1-8.1,0-11.2l-13.1-13.1l21.2-21.2l83.6,83.6c0,0,0,0,0,0s0,0,0,0
			l88.1,88.1c0.2,0.3,0.5,0.6,0.7,0.8s0.5,0.5,0.8,0.7l117.3,117.3l-21.2,21.2L305.7,294.6c-0.1-0.1-0.1-0.2-0.2-0.2l-47.2-47.2
			c-0.1-0.1-0.2-0.1-0.2-0.2l-83.3-83.3c-3.1-3.1-8.1-3.1-11.2,0c-3.1,3.1-3.1,8.1,0,11.2l249.3,249.3l-21.2,21.2l-75.1-75.1
			c-3.1-3.1-8.1-3.1-11.2,0c-3.1,3.1-3.1,8.1,0,11.2l80.7,80.7c0.8,0.8,1.7,1.4,2.7,1.8l95.5,37.1c1.5,0.6,3.1,0.9,4.6,0.9
			c3.3,0,6.6-1.3,9.1-3.8c3.6-3.6,4.7-9,2.9-13.7l-37.1-95.4c-0.4-1-1-2-1.8-2.7l-118-118l160.9-160.9
			C514.4,97.7,514.4,82.1,504.8,72.6z M256.9,332.8l-15.5,15.5l-18.5-18.5c-3.1-3.1-8.1-3.1-11.2,0c-3.1,3.1-3.1,8.1,0,11.2
			l18.5,18.5l-18.4,18.4l-42.1-42.1c-3.1-3.1-8.1-3.1-11.2,0c-3.1,3.1-3.1,8.1,0,11.2l42.1,42.1l-18.4,18.4l-18.5-18.5
			c-3.1-3.1-8.1-3.1-11.2,0c-3.1,3.1-3.1,8.1,0,11.2l18.5,18.5l-18.4,18.4l-18.5-18.5c-3.1-3.1-8.1-3.1-11.2,0
			c-3.1,3.1-3.1,8.1,0,11.2l18.5,18.5l-18.4,18.4l-42.1-42.1c-3.1-3.1-8.1-3.1-11.2,0c-3.1,3.1-3.1,8.1,0,11.2l42.1,42.1L96,493.7
			c-1.6,1.6-3.8,2.5-6.1,2.5s-4.5-0.9-6.1-2.5l-65.5-65.5c-3.4-3.4-3.4-8.9,0-12.2l160.9-160.9L256.9,332.8z M33.4,87
			c-14.8-14.8-14.8-38.8,0-53.6c14.8-14.8,38.8-14.8,53.6,0l25,25L58.4,112L33.4,87z M116.8,116.8
			C116.8,116.8,116.8,116.8,116.8,116.8C116.8,116.8,116.8,116.8,116.8,116.8L90,143.6l-20.4-20.4l53.6-53.6L143.6,90L116.8,116.8z
			 M483.7,483.7l-77.9-30.2l47.6-47.6L483.7,483.7z"/>
	</g>
</g>
</svg>
