<?xml version="1.0" encoding="utf-8"?>
<!-- Generator: Adobe Illustrator 21.0.0, SVG Export Plug-In . SVG Version: 6.00 Build 0)  -->
<svg version="1.1" id="Layer_1" xmlns="http://www.w3.org/2000/svg" xmlns:xlink="http://www.w3.org/1999/xlink" x="0px" y="0px"
	 viewBox="0 0 48 48" style="enable-background:new 0 0 48 48;" xml:space="preserve">
<style type="text/css">
	.st0{fill:#FFFFFF;}
	.st1{fill-rule:evenodd;clip-rule:evenodd;fill:#FFFFFF;}
</style>
<path class="st0" d="M24.1,2c6.2,0,11.8,2.5,15.8,6.6c4.1,4.1,6.6,9.7,6.6,15.8c0,6.2-2.5,11.8-6.6,15.8c-4,4.1-9.7,6.6-15.8,6.6
	c-6.2,0-11.8-2.5-15.8-6.6c-4.1-4.1-6.6-9.7-6.6-15.8c0-6.2,2.5-11.8,6.6-15.8C12.3,4.5,17.9,2,24.1,2L24.1,2z M38.7,9.8
	C35,6.1,29.8,3.7,24.1,3.7c-5.7,0-10.9,2.3-14.6,6.1c-3.7,3.7-6.1,8.9-6.1,14.6c0,5.7,2.3,10.9,6.1,14.6c3.7,3.7,8.9,6,14.6,6
	c5.7,0,10.9-2.3,14.6-6c3.7-3.7,6-8.9,6-14.6C44.7,18.7,42.4,13.5,38.7,9.8L38.7,9.8z"/>
<path class="st1" d="M18.4,24.4c0-3.2,2.6-5.7,5.7-5.7c3.2,0,5.7,2.6,5.7,5.7c0,3.2-2.6,5.7-5.7,5.7C20.9,30.1,18.4,27.6,18.4,24.4
	L18.4,24.4z M30,13.2H18.2c-2.9,0-5.3,2.4-5.3,5.3v11.8c0,2.9,2.4,5.3,5.3,5.3H30c2.9,0,5.3-2.4,5.3-5.3V18.5
	C35.3,15.6,32.9,13.2,30,13.2L30,13.2z M18.2,14.5H30c2.2,0,4,1.8,4,4v11.8c0,2.2-1.8,4-4,4H18.2c-2.2,0-4-1.8-4-4V18.5
	C14.2,16.3,16,14.5,18.2,14.5L18.2,14.5z M31.2,16.2c-0.6,0-1.2,0.5-1.2,1.2c0,0.6,0.5,1.2,1.2,1.2c0.6,0,1.2-0.5,1.2-1.2
	C32.4,16.7,31.8,16.2,31.2,16.2L31.2,16.2z M31.3,24.4c0-4-3.2-7.2-7.2-7.2c-4,0-7.2,3.3-7.2,7.2c0,4,3.3,7.2,7.2,7.2
	C28.1,31.7,31.3,28.4,31.3,24.4L31.3,24.4z"/>
</svg>
