<?xml version="1.0" encoding="utf-8"?>
<!-- Generator: Adobe Illustrator 21.0.0, SVG Export Plug-In . SVG Version: 6.00 Build 0)  -->
<svg version="1.1" id="Layer_1" xmlns="http://www.w3.org/2000/svg" xmlns:xlink="http://www.w3.org/1999/xlink" x="0px" y="0px"
	 viewBox="0 0 48 48" style="enable-background:new 0 0 48 48;" xml:space="preserve">
<style type="text/css">
	.st0{fill:#FFFFFF;}
	.st1{fill-rule:evenodd;clip-rule:evenodd;fill:#FFFFFF;}
</style>
<path class="st0" d="M23.8,1c6.2,0,11.8,2.5,15.9,6.6c4.1,4.1,6.6,9.7,6.6,15.9c0,6.2-2.5,11.8-6.6,15.9c-4.1,4.1-9.7,6.6-15.9,6.6
	c-6.2,0-11.8-2.5-15.9-6.6c-4.1-4.1-6.6-9.7-6.6-15.9c0-6.2,2.5-11.8,6.6-15.9C12,3.5,17.6,1,23.8,1L23.8,1z M38.5,8.8
	c-3.7-3.8-8.9-6.1-14.7-6.1c-5.7,0-10.9,2.3-14.7,6.1c-3.8,3.7-6.1,8.9-6.1,14.7c0,5.7,2.3,10.9,6.1,14.7c3.7,3.8,8.9,6.1,14.7,6.1
	c5.7,0,10.9-2.3,14.7-6.1c3.8-3.7,6.1-8.9,6.1-14.7C44.6,17.8,42.3,12.6,38.5,8.8L38.5,8.8z"/>
<path class="st1" d="M13.7,23.7v9.9h4.7V22.9v-2.8h-4.7V23.7z M33.9,24.3c-0.3-2.6-1.5-4.2-4.9-4.2c-2,0-3.4,0.7-4,1.8h-0.1v-1.8
	h-3.8v2.6v10.9h3.9v-6.7c0-1.8,0.3-3.5,2.5-3.5c2.2,0,2.3,2,2.3,3.6v6.6H34v-7.4C34,25.5,34,24.9,33.9,24.3L33.9,24.3z M16.1,13.3
	c-1.3,0-2.4,1.1-2.4,2.4s1.1,2.4,2.4,2.4c1.3,0,2.4-1.1,2.4-2.4S17.4,13.3,16.1,13.3L16.1,13.3z"/>
</svg>
