<svg xmlns="http://www.w3.org/2000/svg" width="20.525" height="20.525" viewBox="0 0 20.525 20.525">
  <g id="Nav_bar_close" transform="translate(1126.842 -3716.079)">
    <path id="Path_85" data-name="Path 85" d="M1.073.079,24.1,1.773a1.285,1.285,0,0,1,1.152,1.152.9.9,0,0,1-.994.994L1.231,2.225A1.285,1.285,0,0,1,.079,1.073.9.9,0,0,1,1.073.079Z" transform="translate(-1124.123 3715.971) rotate(45)" fill="#fff"/>
    <path id="Path_86" data-name="Path 86" d="M1.073-.079,24.1-1.773a.9.9,0,0,1,.994.994A1.285,1.285,0,0,1,23.945.373L.915,2.067a.9.9,0,0,1-.994-.994A1.285,1.285,0,0,1,1.073-.079Z" transform="translate(-1125.529 3735.083) rotate(-45)" fill="#fff"/>
  </g>
</svg>
