<svg id="Layer_1" data-name="Layer 1" xmlns="http://www.w3.org/2000/svg" viewBox="0 0 384 512.01"><defs><style>.cls-1{fill:#01c476;}</style></defs><title>pencil-case</title><path class="cls-1" d="M405.34,277.34H362.67V266.68a10.57,10.57,0,0,0-7.11-9.95l33.83-110A53.23,53.23,0,0,0,427.19,96c0-28-7.46-52.16-45.56-92.65a10.67,10.67,0,0,0-18.44,7.31c0,16-11.39,30.73-22.4,44.95C330.37,69.08,320.53,81.8,320.53,96a52.79,52.79,0,0,0,7.93,27.6L290.62,256H277.34V10.68A10.66,10.66,0,0,0,266.67,0H181.34a10.66,10.66,0,0,0-10.67,10.67V226.81l-43.05-155a10.62,10.62,0,0,0-1.41-3.06l-42.67-64A10.67,10.67,0,0,0,64,10.68V85.34a10.51,10.51,0,0,0,.44,3L114,256.69a10.56,10.56,0,0,0-7.28,10V469.34A42.71,42.71,0,0,0,149.34,512H320a42.71,42.71,0,0,0,42.67-42.67V426.68A85.43,85.43,0,0,0,448,341.34V320A42.71,42.71,0,0,0,405.34,277.34ZM357.66,68.68c8.16-10.52,17-22,22.25-35.05,23.75,29,25.95,45.62,25.95,62.38a32,32,0,1,1-64,0C341.86,89.09,349.89,78.72,357.66,68.68ZM192,213.34h32A10.67,10.67,0,1,0,224,192H192V149.34h32A10.67,10.67,0,1,0,224,128H192V85.34h32A10.67,10.67,0,0,0,224,64H192V21.34h64V256H192ZM85.34,45.91,100.07,68,85.34,71.69ZM88,93l21.8-5.45L156.64,256H136Zm253.3,376.35A21.36,21.36,0,0,1,320,490.68H149.34A21.36,21.36,0,0,1,128,469.34v-192H341.34ZM333.46,256H312.82l32.83-114.92a52.81,52.81,0,0,0,20.86,7.51Zm93.21,85.33a64.07,64.07,0,0,1-64,64V298.68h42.67A21.36,21.36,0,0,1,426.67,320Z" transform="translate(-64.01 0)"/></svg>