<svg id="Layer_1" data-name="Layer 1" xmlns="http://www.w3.org/2000/svg" viewBox="0 0 287 502"><defs><style>.cls-1{fill:#01c476;}</style></defs><title>smartphone</title><path class="cls-1" d="M384.5,0h-267a10,10,0,0,0-10,10V492a10,10,0,0,0,10,10h267a10,10,0,0,0,10-10V10A10,10,0,0,0,384.5,0Zm-10,482h-247V407h247Zm0-95h-247V20h247Z" transform="translate(-107.5)"/><path class="cls-1" d="M251,470a26,26,0,0,0,0-52,10,10,0,0,0,0,20,6,6,0,1,1-5.4,8.62,10,10,0,0,0-18,8.76A26.17,26.17,0,0,0,251,470Z" transform="translate(-107.5)"/><path class="cls-1" d="M277.93,109.09a10,10,0,0,0-10-10H234.07a10,10,0,0,0-10,10V133a74.84,74.84,0,0,0-20,11.53l-20.7-11.95a10,10,0,0,0-13.66,3.66l-16.93,29.32a10,10,0,0,0,3.66,13.66l20.69,11.95a74.89,74.89,0,0,0,0,23.06l-20.69,11.95a10,10,0,0,0-3.66,13.66l16.93,29.32a10,10,0,0,0,13.66,3.66l20.7-11.95a74.85,74.85,0,0,0,20,11.53v23.89a10,10,0,0,0,10,10h33.85a10,10,0,0,0,10-10V272.38a74.87,74.87,0,0,0,20-11.53l20.7,11.95a10,10,0,0,0,13.66-3.66l16.93-29.32a10,10,0,0,0-3.66-13.66l-20.69-11.95a74.89,74.89,0,0,0,0-23.06l20.69-11.95a10,10,0,0,0,3.66-13.66l-16.93-29.32a10,10,0,0,0-13.66-3.66l-20.7,11.95a74.83,74.83,0,0,0-20-11.53Zm11.65,54.79a10,10,0,0,0,12.05,1.57l18.3-10.57,6.93,12-18.29,10.56a10,10,0,0,0-4.67,11.21,54.93,54.93,0,0,1,0,28,10,10,0,0,0,4.67,11.21l18.29,10.56-6.93,12-18.3-10.57a10,10,0,0,0-12.05,1.57,54.73,54.73,0,0,1-24.26,14,10,10,0,0,0-7.39,9.65v21.13H244.07V265.15a10,10,0,0,0-7.39-9.65,54.74,54.74,0,0,1-24.26-14,10,10,0,0,0-12.05-1.57l-18.3,10.57-6.93-12,18.29-10.56a10,10,0,0,0,4.67-11.21,54.93,54.93,0,0,1,0-28,10,10,0,0,0-4.67-11.21l-18.29-10.56,6.93-12,18.3,10.57a10,10,0,0,0,12.05-1.57,54.74,54.74,0,0,1,24.26-14,10,10,0,0,0,7.39-9.65V119.09h13.85v21.13a10,10,0,0,0,7.39,9.65A54.75,54.75,0,0,1,289.58,163.88Z" transform="translate(-107.5)"/><path class="cls-1" d="M214.12,202.68A36.88,36.88,0,1,0,251,165.8,36.92,36.92,0,0,0,214.12,202.68Zm53.76,0A16.88,16.88,0,1,1,251,185.8,16.9,16.9,0,0,1,267.88,202.68Z" transform="translate(-107.5)"/><path class="cls-1" d="M155,55H277a10,10,0,0,0,0-20H155a10,10,0,0,0,0,20Z" transform="translate(-107.5)"/><path class="cls-1" d="M313,55h14a10,10,0,0,0,0-20H313a10,10,0,0,0,0,20Z" transform="translate(-107.5)"/></svg>