<?xml version="1.0" encoding="utf-8"?>
<!-- Generator: Adobe Illustrator 21.0.0, SVG Export Plug-In . SVG Version: 6.00 Build 0)  -->
<svg version="1.1" id="Layer_1" xmlns="http://www.w3.org/2000/svg" xmlns:xlink="http://www.w3.org/1999/xlink" x="0px" y="0px"
	 viewBox="0 0 512 512" style="enable-background:new 0 0 512 512;" xml:space="preserve">
<style type="text/css">
	.st0{fill:#FFFFFF;}
</style>
<path class="st0" d="M501.9,159.8h-66.7V69.1c0-5.6-4.5-10.1-10.1-10.1H10.1C4.5,59,0,63.5,0,69.1v293.5c0,5.6,4.5,10.1,10.1,10.1
	h42.6c5.6,0,10.1-4.5,10.1-10.1s-4.5-10.1-10.1-10.1H20.3v-38.8h338.9v38.8H135.7c-5.6,0-10.1,4.5-10.1,10.1s4.5,10.1,10.1,10.1
	h29.3l-12.1,33.3h-21.4c-3.2,0-6.2,1.5-8.1,4l-13,17.2c-3.4,4.5-2.5,10.8,1.9,14.2c4.5,3.4,10.8,2.5,14.2-1.9l10-13.2h162.1l10,13.2
	c2,2.6,5,4,8.1,4c2.1,0,4.3-0.7,6.1-2.1c4.5-3.4,5.3-9.7,1.9-14.2l-13-17.2c-1.9-2.5-4.9-4-8.1-4h-23l-12.1-33.3h90.6v69.4
	c0,5.6,4.5,10.1,10.1,10.1h132.6c5.6,0,10.1-4.5,10.1-10.1V169.9C512,164.3,507.5,159.8,501.9,159.8z M174.5,406.1l12.1-33.3H247
	l12.1,33.3H174.5z M379.4,231.6h112.3V375H379.4V231.6z M491.7,180v31.4H379.4V180H491.7z M20.3,293.5V79.3h394.7v80.5h-45.7
	c-5.6,0-10.1,4.5-10.1,10.1v123.6H20.3z M491.7,432H379.4v-36.8h112.3L491.7,432L491.7,432z"/>
<path class="st0" d="M233.7,343.2c5.6,0,10.1-4.5,10.1-10.1s-4.5-10.1-10.1-10.1h-31.5c-5.6,0-10.1,4.5-10.1,10.1
	s4.5,10.1,10.1,10.1H233.7z"/>
<path class="st0" d="M426.6,205.9H445c5.6,0,10.1-4.5,10.1-10.1s-4.5-10.1-10.1-10.1h-18.4c-5.6,0-10.1,4.5-10.1,10.1
	S421,205.9,426.6,205.9z"/>
<path class="st0" d="M435.2,423.1c0.8,0,1.5-0.1,2.3-0.3l0.7-0.2c5.4-1.3,8.8-6.7,7.5-12.2c-1.3-5.4-6.7-8.8-12.2-7.5l-0.7,0.2
	c-5.4,1.3-8.8,6.7-7.5,12.2C426.5,420,430.6,423.1,435.2,423.1z"/>
<path class="st0" d="M91.3,352.7l-0.6,0.1c-5.4,1.3-8.8,6.7-7.6,12.2c1.1,4.7,5.3,7.8,9.9,7.8c0.8,0,1.5-0.1,2.3-0.3l0.6-0.1
	c5.4-1.3,8.8-6.7,7.6-12.2C102.2,354.8,96.7,351.4,91.3,352.7z"/>
<path class="st0" d="M318.8,140.5c0.8,0,1.5-0.1,2.3-0.3l0.6-0.1c5.4-1.3,8.8-6.7,7.5-12.2c-1.3-5.4-6.7-8.8-12.2-7.5l-0.6,0.1
	c-5.4,1.3-8.8,6.7-7.5,12.2C310.1,137.4,314.2,140.5,318.8,140.5z"/>
<path class="st0" d="M65.6,140.5h104.3c5.6,0,10.1-4.5,10.1-10.1s-4.5-10.1-10.1-10.1H65.6c-5.6,0-10.1,4.5-10.1,10.1
	S60,140.5,65.6,140.5z"/>
<path class="st0" d="M65.6,176h252.2c5.6,0,10.1-4.5,10.1-10.1s-4.5-10.1-10.1-10.1H65.6c-5.6,0-10.1,4.5-10.1,10.1S60,176,65.6,176
	z"/>
<path class="st0" d="M319.5,194.8H65.6c-5.6,0-10.1,4.5-10.1,10.1s4.5,10.1,10.1,10.1h253.9c5.6,0,10.1-4.5,10.1-10.1
	S325.1,194.8,319.5,194.8z"/>
<path class="st0" d="M166.5,231.3H65.6c-5.6,0-10.1,4.5-10.1,10.1s4.5,10.1,10.1,10.1h100.9c5.6,0,10.1-4.5,10.1-10.1
	S172.1,231.3,166.5,231.3z"/>
<path class="st0" d="M252.5,231.3H202c-5.6,0-10.1,4.5-10.1,10.1s4.5,10.1,10.1,10.1h50.5c5.6,0,10.1-4.5,10.1-10.1
	S258.1,231.3,252.5,231.3z"/>
<path class="st0" d="M203.2,140.5h20.6c5.6,0,10.1-4.5,10.1-10.1s-4.5-10.1-10.1-10.1h-20.6c-5.6,0-10.1,4.5-10.1,10.1
	S197.6,140.5,203.2,140.5z"/>
<path class="st0" d="M255.8,140.5h20.6c5.6,0,10.1-4.5,10.1-10.1s-4.5-10.1-10.1-10.1h-20.6c-5.6,0-10.1,4.5-10.1,10.1
	S250.2,140.5,255.8,140.5z"/>
<path class="st0" d="M413.5,303.7l-4.6-4.5l4.6-4.5c4-3.9,4-10.3,0.1-14.3c-3.9-4-10.3-4-14.3-0.1l-11.9,11.7
	c-2.4,2.4-3.5,5.9-2.8,9.2c0.4,2,1.4,3.8,2.9,5.2l11.8,11.7c2,2,4.5,2.9,7.1,2.9c2.6,0,5.2-1,7.2-3
	C417.5,314,417.5,307.6,413.5,303.7z"/>
<path class="st0" d="M484.1,291.9l-11.8-11.7c-4-3.9-10.4-3.9-14.3,0.1c-3.9,4-3.9,10.4,0.1,14.3l4.6,4.5l-4.6,4.5
	c-4,3.9-4,10.3-0.1,14.3c2,2,4.6,3,7.2,3c2.6,0,5.1-1,7.1-2.9l11.9-11.7c2.4-2.4,3.5-5.9,2.8-9.2
	C486.5,295.1,485.5,293.3,484.1,291.9z"/>
<path class="st0" d="M450,268.3c-5.1-2.3-11.1,0-13.4,5.1l-19.4,43.3c-2.3,5.1,0,11.1,5.1,13.4c1.3,0.6,2.8,0.9,4.1,0.9
	c3.9,0,7.6-2.2,9.2-6l19.4-43.3C457.4,276.5,455.1,270.5,450,268.3z"/>
</svg>
