<svg xmlns="http://www.w3.org/2000/svg" width="117.429" height="82.68" viewBox="0 0 117.429 82.68">
  <defs>
    <style>
      .cls-1 {
        fill: #fff;
      }
    </style>
  </defs>
  <g id="Web_design" transform="translate(-871 -3013.061)">
    <path id="Path_71" data-name="Path 71" class="cls-1" d="M986.033,3041.691H974.755v-26.233a2.4,2.4,0,0,0-2.4-2.4H873.4a2.4,2.4,0,0,0-2.4,2.4v66.324a2.4,2.4,0,0,0,2.4,2.4h40.9v6.77h-5.435a2.4,2.4,0,0,0,0,4.793h29.611a2.4,2.4,0,1,0,0-4.793h-5.434v-6.77h13.773v9.166a2.4,2.4,0,0,0,2.4,2.4h36.822a2.4,2.4,0,0,0,2.4-2.4v-49.257a2.4,2.4,0,0,0-2.4-2.4Zm-2.4,37.695H951.607v-32.9h32.029Zm-13.674-61.531v23.836H949.211a2.4,2.4,0,0,0-2.4,2.4v16.786H875.793v-43.019Zm-41.714,73.094h-9.156v-6.77h9.156Zm-52.455-11.562v-13.719h71.021v13.719Zm75.814,11.563v-6.77h32.029v6.77Zm0,0" transform="translate(0)"/>
    <path id="Path_72" data-name="Path 72" class="cls-1" d="M1186.543,3254.292a1.6,1.6,0,1,1-1.6-1.6,1.6,1.6,0,0,1,1.6,1.6Zm0,0" transform="translate(-217.32 -166.729)"/>
    <path id="Path_73" data-name="Path 73" class="cls-1" d="M1038.948,3202.336a2,2,0,1,1-2-2,2,2,0,0,1,2,2Zm0,0" transform="translate(-114.069 -130.301)"/>
  </g>
</svg>
